<svg width="5" height="5" viewBox="0 0 5 5" fill="none" xmlns="http://www.w3.org/2000/svg">
<path d="M0.351562 2.30356L0.61875 1.30513C1.22812 1.56763 1.67109 1.79497 1.94766 1.98716C1.87734 1.12466 1.83984 0.541065 1.83516 0.236377H2.67187C2.6625 0.686377 2.61797 1.26763 2.53828 1.98013C2.92734 1.74106 3.37969 1.51606 3.89531 1.30513L4.1625 2.30356C3.67031 2.50044 3.19219 2.63169 2.72812 2.69731C2.9625 2.94575 3.29297 3.38872 3.71953 4.02622L3.03047 4.62388C2.81484 4.26763 2.55 3.76372 2.23594 3.11216C1.95 3.7731 1.69922 4.277 1.48359 4.62388L0.808594 4.02622C1.23047 3.37935 1.54922 2.93638 1.76484 2.69731C1.26328 2.58013 0.792187 2.44888 0.351562 2.30356Z" fill="#D21C3E"/>
</svg>
